<svg width="900" height="450" viewBox="0 0 900 450" fill="none" xmlns="http://www.w3.org/2000/svg">
  <defs>
    <linearGradient id="bg" x1="90" y1="40" x2="860" y2="430" gradientUnits="userSpaceOnUse">
      <stop stop-color="#FFFFFF"/>
      <stop offset="1" stop-color="#F8FAFC"/>
    </linearGradient>
    <linearGradient id="warm" x1="120" y1="90" x2="820" y2="340" gradientUnits="userSpaceOnUse">
      <stop stop-color="#EF4444" stop-opacity="0.14"/>
      <stop offset="1" stop-color="#F97316" stop-opacity="0.12"/>
    </linearGradient>
    <filter id="shadow" x="0" y="0" width="200%" height="200%">
      <feDropShadow dx="0" dy="18" stdDeviation="18" flood-color="#0F172A" flood-opacity="0.12"/>
    </filter>
  </defs>

  <rect x="0" y="0" width="900" height="450" rx="36" fill="url(#bg)"/>
  <path d="M120 86C190 34 340 26 420 64C500 102 570 156 650 142C730 128 780 80 820 66C860 52 888 58 900 70V450H0V170C40 150 82 116 120 86Z" fill="url(#warm)"/>

  <g filter="url(#shadow)">
    <rect x="86" y="70" width="728" height="310" rx="34" fill="#FFFFFF" stroke="#0F172A" stroke-opacity="0.10" stroke-width="4"/>

    <!-- header -->
    <rect x="130" y="108" width="170" height="18" rx="9" fill="#0F172A" fill-opacity="0.08"/>
    <rect x="310" y="108" width="90" height="18" rx="9" fill="#EF4444" fill-opacity="0.18"/>

    <!-- left chat column -->
    <rect x="130" y="150" width="280" height="190" rx="26" fill="#F6F7FB"/>
    <rect x="156" y="174" width="190" height="44" rx="22" fill="#0F172A" fill-opacity="0.06"/>
    <rect x="176" y="190" width="130" height="12" rx="6" fill="#0F172A" fill-opacity="0.10"/>

    <rect x="190" y="230" width="200" height="44" rx="22" fill="#EF4444" fill-opacity="0.14"/>
    <rect x="210" y="246" width="140" height="12" rx="6" fill="#0F172A" fill-opacity="0.12"/>

    <rect x="156" y="286" width="220" height="44" rx="22" fill="#F97316" fill-opacity="0.14"/>
    <rect x="176" y="302" width="156" height="12" rx="6" fill="#0F172A" fill-opacity="0.12"/>

    <!-- right tasks column -->
    <rect x="438" y="150" width="346" height="190" rx="26" fill="#FFFFFF" stroke="#0F172A" stroke-opacity="0.10" stroke-width="3"/>
    <rect x="466" y="178" width="260" height="18" rx="9" fill="#0F172A" fill-opacity="0.08"/>

    <!-- task rows -->
    <rect x="466" y="214" width="292" height="40" rx="20" fill="#0F172A" fill-opacity="0.05"/>
    <circle cx="488" cy="234" r="9" fill="#16A34A" fill-opacity="0.20"/>
    <path d="M484 234L487 237L493 229" stroke="#16A34A" stroke-width="3.5" stroke-linecap="round" stroke-linejoin="round"/>
    <rect x="506" y="226" width="176" height="12" rx="6" fill="#0F172A" fill-opacity="0.10"/>

    <rect x="466" y="262" width="292" height="40" rx="20" fill="#EF4444" fill-opacity="0.08"/>
    <circle cx="488" cy="282" r="9" fill="#EF4444" fill-opacity="0.18"/>
    <rect x="506" y="274" width="208" height="12" rx="6" fill="#0F172A" fill-opacity="0.10"/>

    <rect x="466" y="310" width="292" height="40" rx="20" fill="#F97316" fill-opacity="0.08"/>
    <circle cx="488" cy="330" r="9" fill="#F97316" fill-opacity="0.20"/>
    <rect x="506" y="322" width="156" height="12" rx="6" fill="#0F172A" fill-opacity="0.10"/>
  </g>
</svg>
