<svg width="900" height="450" viewBox="0 0 900 450" fill="none" xmlns="http://www.w3.org/2000/svg">
  <defs>
    <linearGradient id="bg" x1="90" y1="40" x2="860" y2="430" gradientUnits="userSpaceOnUse">
      <stop stop-color="#FFFFFF"/>
      <stop offset="1" stop-color="#F8FAFC"/>
    </linearGradient>
    <linearGradient id="warm" x1="120" y1="70" x2="520" y2="350" gradientUnits="userSpaceOnUse">
      <stop stop-color="#EF4444" stop-opacity="0.16"/>
      <stop offset="1" stop-color="#F97316" stop-opacity="0.12"/>
    </linearGradient>
    <filter id="shadow" x="0" y="0" width="200%" height="200%">
      <feDropShadow dx="0" dy="18" stdDeviation="18" flood-color="#0F172A" flood-opacity="0.12"/>
    </filter>
  </defs>

  <rect x="0" y="0" width="900" height="450" rx="36" fill="url(#bg)"/>
  <path d="M60 120C120 40 260 30 340 70C420 110 480 170 560 150C640 130 700 70 760 60C820 50 870 70 900 90V450H0V180C20 170 40 150 60 120Z" fill="url(#warm)"/>

  <!-- Whiteboard -->
  <g filter="url(#shadow)">
    <rect x="110" y="84" width="680" height="282" rx="32" fill="#FFFFFF" stroke="#0F172A" stroke-opacity="0.10" stroke-width="4"/>
    <rect x="152" y="126" width="596" height="198" rx="24" fill="#F6F7FB"/>

    <!-- title chips -->
    <rect x="168" y="144" width="174" height="18" rx="9" fill="#0F172A" fill-opacity="0.08"/>
    <rect x="352" y="144" width="96" height="18" rx="9" fill="#EF4444" fill-opacity="0.18"/>
    <rect x="456" y="144" width="86" height="18" rx="9" fill="#F97316" fill-opacity="0.18"/>

    <!-- sketch + equation -->
    <path d="M182 246C224 212 266 284 310 238C354 192 398 284 440 228C482 172 542 260 586 214" stroke="#EF4444" stroke-opacity="0.70" stroke-width="10" stroke-linecap="round"/>
    <path d="M182 284H430" stroke="#0F172A" stroke-opacity="0.10" stroke-width="10" stroke-linecap="round"/>
    <path d="M182 308H360" stroke="#0F172A" stroke-opacity="0.08" stroke-width="10" stroke-linecap="round"/>

    <!-- sticky notes -->
    <rect x="610" y="190" width="120" height="86" rx="18" fill="#FFFFFF" stroke="#0F172A" stroke-opacity="0.10" stroke-width="3"/>
    <rect x="628" y="212" width="84" height="12" rx="6" fill="#0F172A" fill-opacity="0.08"/>
    <rect x="628" y="238" width="64" height="12" rx="6" fill="#0F172A" fill-opacity="0.06"/>
  </g>

  <!-- cursor dots -->
  <circle cx="204" cy="176" r="6" fill="#0F172A" fill-opacity="0.18"/>
  <circle cx="226" cy="176" r="6" fill="#EF4444" fill-opacity="0.40"/>
  <circle cx="248" cy="176" r="6" fill="#F97316" fill-opacity="0.35"/>
</svg>
