<svg width="256" height="256" viewBox="0 0 256 256" fill="none" xmlns="http://www.w3.org/2000/svg">
  <defs>
    <linearGradient id="g1" x1="40" y1="38" x2="216" y2="220" gradientUnits="userSpaceOnUse">
      <stop stop-color="#FFFFFF"/>
      <stop offset="1" stop-color="#F8FAFC"/>
    </linearGradient>
    <linearGradient id="accent" x1="72" y1="90" x2="204" y2="182" gradientUnits="userSpaceOnUse">
      <stop stop-color="#EF4444" stop-opacity="0.18"/>
      <stop offset="1" stop-color="#F97316" stop-opacity="0.18"/>
    </linearGradient>
    <filter id="s" x="0" y="0" width="200%" height="200%">
      <feDropShadow dx="0" dy="14" stdDeviation="14" flood-color="#0F172A" flood-opacity="0.12"/>
    </filter>
  </defs>

  <rect x="22" y="22" width="212" height="212" rx="36" fill="url(#g1)" stroke="#0F172A" stroke-opacity="0.08" stroke-width="4" filter="url(#s)"/>
  <path d="M42 78C64 56 96 48 122 56C148 64 160 84 190 86C220 88 236 72 246 62V234H22V112C28 98 34 86 42 78Z" fill="url(#accent)"/>

  <!-- checklist card -->
  <rect x="56" y="70" width="144" height="112" rx="24" fill="#FFFFFF" stroke="#0F172A" stroke-opacity="0.10" stroke-width="4"/>
  <rect x="74" y="96" width="90" height="14" rx="7" fill="#0F172A" fill-opacity="0.10"/>
  <rect x="74" y="124" width="106" height="14" rx="7" fill="#0F172A" fill-opacity="0.08"/>
  <rect x="74" y="152" width="68" height="14" rx="7" fill="#0F172A" fill-opacity="0.06"/>

  <!-- check icons -->
  <circle cx="188" cy="104" r="10" fill="#16A34A" fill-opacity="0.20"/>
  <path d="M184 104L187 107L193 99" stroke="#16A34A" stroke-width="4" stroke-linecap="round" stroke-linejoin="round"/>
  <circle cx="188" cy="132" r="10" fill="#EF4444" fill-opacity="0.18"/>
  <path d="M185 132H191" stroke="#EF4444" stroke-width="4" stroke-linecap="round"/>

  <!-- pencil -->
  <path d="M72 206L156 122" stroke="#F97316" stroke-width="18" stroke-linecap="round"/>
  <path d="M144 134L164 114" stroke="#0F172A" stroke-opacity="0.35" stroke-width="8" stroke-linecap="round"/>
</svg>
