<svg width="1200" height="540" viewBox="0 0 1200 540" fill="none" xmlns="http://www.w3.org/2000/svg">
  <defs>
    <linearGradient id="bg" x1="80" y1="40" x2="1120" y2="500" gradientUnits="userSpaceOnUse">
      <stop stop-color="#FFFFFF"/>
      <stop offset="1" stop-color="#F8FAFC"/>
    </linearGradient>
    <linearGradient id="warm" x1="160" y1="80" x2="980" y2="460" gradientUnits="userSpaceOnUse">
      <stop stop-color="#EF4444" stop-opacity="0.14"/>
      <stop offset="1" stop-color="#F97316" stop-opacity="0.12"/>
    </linearGradient>
    <filter id="shadow" x="0" y="0" width="200%" height="200%">
      <feDropShadow dx="0" dy="18" stdDeviation="18" flood-color="#0F172A" flood-opacity="0.12"/>
    </filter>
  </defs>

  <rect x="0" y="0" width="1200" height="540" rx="44" fill="url(#bg)"/>
  <path d="M120 150C220 40 420 30 560 86C700 142 760 214 900 206C1040 198 1120 118 1200 70V540H0V210C40 200 80 190 120 150Z" fill="url(#warm)"/>

  <!-- Laptop -->
  <g filter="url(#shadow)">
    <rect x="360" y="120" width="520" height="290" rx="34" fill="#FFFFFF" stroke="#0F172A" stroke-opacity="0.10" stroke-width="4"/>
    <rect x="392" y="152" width="456" height="226" rx="22" fill="#F6F7FB"/>
    <rect x="414" y="176" width="188" height="66" rx="18" fill="#FFFFFF" stroke="#0F172A" stroke-opacity="0.10" stroke-width="3"/>
    <rect x="620" y="176" width="206" height="66" rx="18" fill="#FFFFFF" stroke="#0F172A" stroke-opacity="0.10" stroke-width="3"/>
    <rect x="414" y="258" width="412" height="100" rx="22" fill="#FFFFFF" stroke="#0F172A" stroke-opacity="0.10" stroke-width="3"/>
    <path d="M442 318C470 296 498 336 528 310C558 284 588 336 618 306C648 276 678 330 706 304C734 278 770 320 796 296" stroke="#F97316" stroke-opacity="0.70" stroke-width="8" stroke-linecap="round"/>
  </g>

  <!-- Small desk items -->
  <g filter="url(#shadow)">
    <rect x="160" y="330" width="170" height="130" rx="26" fill="#FFFFFF" stroke="#0F172A" stroke-opacity="0.10" stroke-width="4"/>
    <rect x="184" y="360" width="122" height="12" rx="6" fill="#0F172A" fill-opacity="0.08"/>
    <rect x="184" y="388" width="132" height="12" rx="6" fill="#0F172A" fill-opacity="0.06"/>
    <path d="M184 420H308" stroke="#EF4444" stroke-opacity="0.55" stroke-width="10" stroke-linecap="round"/>
  </g>
</svg>
